<svg id="_50" data-name="50" xmlns="http://www.w3.org/2000/svg" viewBox="0 0 512 512"><defs><style>.cls-1{fill:#aa0dd1;}.cls-2{fill:#8d00af;}.cls-3{fill:#d48d77;}.cls-4{fill:#eea47d;}.cls-5{fill:#ffbf94;}.cls-6{fill:#ffb8cb;}.cls-7{fill:#ffccd7;}.cls-8{fill:#ffe1e9;}.cls-9{fill:#ffa6c6;}.cls-10{fill:#e52e44;}.cls-11{fill:#fa4654;}.cls-12{fill:#fb626e;}</style></defs><title>50-heart-icons</title><circle class="cls-1" cx="256" cy="256" r="256"/><path class="cls-2" d="M503,323.54C473.36,432.15,374,512,256,512,114.62,512,0,397.38,0,256a257.16,257.16,0,0,1,3.52-42.54,65,65,0,0,0,32.19.83c16.91-4,31.71-14.46,48.54-18.76,27.84-7.1,59.55,5.15,75.38,29.13,9.54,14.44,15.55,34.06,32.1,39.15,9.83,3,20.71-.5,29-6.6s14.49-14.51,20.79-22.64c13.33-17.21,28.24-34.21,48-43.25s45.66-8.08,60.72,7.63c6.82,7.13,10.8,16.45,14.18,25.72,13.89,38.09,13.6,74.48,32.5,110.35,3.68,7,15.14,18.94,22.81,20.7,13.27,3,22.94-11.51,32.89-20.8C465.83,322.62,485.81,318.23,503,323.54Z"/><path class="cls-3" d="M255.61,287.41a24.75,24.75,0,0,1-15.46,9.81.23.23,0,0,0-.11,0l-.12,0a23.07,23.07,0,0,1-10.66-.61,22,22,0,0,1-15.63-18.4l-10.21-77.9c-1.16-8.88,5.34-17.17,14.49-18.58a29.62,29.62,0,0,1,7.26-.24,29,29,0,0,1,14.29,5.25,27.33,27.33,0,0,1,11.2,18.14L260,270A24,24,0,0,1,255.61,287.41Z"/><path class="cls-4" d="M255.61,287.41a24.75,24.75,0,0,1-15.46,9.81.23.23,0,0,0-.11,0l-.12,0a10.13,10.13,0,0,1-11.76-8.74L216,198.37a16.52,16.52,0,0,1,9.14-16.84,29,29,0,0,1,14.29,5.25,27.33,27.33,0,0,1,11.2,18.14L260,270A24,24,0,0,1,255.61,287.41Z"/><path class="cls-4" d="M322.17,394.22,208.34,312.85c-10.47-7.49-25.64-4.68-34,6.37L170,325.05c-18.57,24.71-14.74,58.87,8.93,75.79l70.92,50.7c23.67,16.92,56.81,9.2,73.68-16.72l4-6.13C335.07,417.1,332.65,401.71,322.17,394.22Z"/><path class="cls-4" d="M299,305.29,251,374a26,26,0,0,1-15.91,10.63,22.67,22.67,0,0,1-18-3.65,22,22,0,0,1-7.11-8.47,25.4,25.4,0,0,1,2.7-25.88l49.22-67.84c5.54-7.65,16-9.53,23.4-4.24l10.13,7.24C302.82,287,304.45,297.55,299,305.29Z"/><path class="cls-4" d="M325.48,347.66l-36.24,53.67a25.55,25.55,0,0,1-15.66,10.8,22.24,22.24,0,0,1-25-12.07A25.94,25.94,0,0,1,251,374l37.13-53c5.49-7.85,16-9.86,23.4-4.53l10.2,7.29C329.13,329,330.85,339.71,325.48,347.66Z"/><path class="cls-4" d="M350.91,392.78,327.53,428.7a25.23,25.23,0,0,1-15.42,11,21.92,21.92,0,0,1-17.76-3.5,22.7,22.7,0,0,1-7.19-8.53,26.5,26.5,0,0,1,2.08-26.32l24-35.49c5.45-8.08,15.93-10.23,23.44-4.87l10.27,7.35C354.42,373.68,356.22,384.61,350.91,392.78Z"/><path class="cls-5" d="M299,305.29,251,374a26,26,0,0,1-15.91,10.63,22.67,22.67,0,0,1-18-3.65l-.1-.06c-4.78-3.46-5.51-10.51-1.82-15.65L272.08,286c5.51-7.68,15.95-9.57,23.34-4.29h0C302.82,287,304.45,297.55,299,305.29Z"/><path class="cls-4" d="M308.8,214.09l-96.12,132.5a26.46,26.46,0,0,1-16.16,10.46,23.12,23.12,0,0,1-18.06-3.72,22,22,0,0,1-7.08-8.45,25,25,0,0,1,3-25.66l98.37-130.89a16.47,16.47,0,0,1,22.65-3.56l9.83,7A15.87,15.87,0,0,1,308.8,214.09Z"/><path class="cls-5" d="M308.8,214.09l-96.12,132.5a26.46,26.46,0,0,1-16.16,10.46,23.12,23.12,0,0,1-18.06-3.72l-.1-.07c-4.78-3.46-5.43-10.46-1.66-15.53l106-142.34a16.38,16.38,0,0,1,22.59-3.6h0A15.87,15.87,0,0,1,308.8,214.09Z"/><path class="cls-5" d="M325.48,347.66l-36.24,53.67a25.55,25.55,0,0,1-15.66,10.8,22.29,22.29,0,0,1-17.86-3.57l-.09-.07c-4.79-3.45-5.59-10.56-2-15.75l44.69-64.48c5.46-7.88,15.89-9.91,23.34-4.59h0C329.13,329,330.85,339.71,325.48,347.66Z"/><path class="cls-5" d="M350.91,392.78,327.53,428.7a25.23,25.23,0,0,1-15.42,11,21.92,21.92,0,0,1-17.76-3.5l-.09-.07c-4.78-3.45-5.66-10.61-2.14-15.87l31.43-47c5.41-8.11,15.86-10.28,23.37-4.91h0C354.42,373.68,356.22,384.61,350.91,392.78Z"/><path class="cls-4" d="M291.3,295.75,273.41,283a3.9,3.9,0,0,0-5.39,1h0a3.87,3.87,0,0,0,.79,5.42l17.94,12.82a3.84,3.84,0,0,0,5.37-1h0A3.89,3.89,0,0,0,291.3,295.75Z"/><path class="cls-4" d="M249.35,275.88,231.4,263.06a4,4,0,0,0-5.46,1h0a3.8,3.8,0,0,0,.72,5.4l18,12.87a4,4,0,0,0,5.45-1h0A3.85,3.85,0,0,0,249.35,275.88Z"/><path class="cls-4" d="M257.55,264.69,239.7,251.92a4,4,0,0,0-5.43.94h0a3.78,3.78,0,0,0,.73,5.36L252.91,271a3.92,3.92,0,0,0,5.41-1h0A3.82,3.82,0,0,0,257.55,264.69Z"/><path class="cls-4" d="M300.07,289.9a3.82,3.82,0,0,1-5.33,1l-17.85-12.76a3.71,3.71,0,0,1-1.51-2.49,4,4,0,0,1,2.05-4.06,15.9,15.9,0,0,1,7.08,2.4l11.67,8.34a16,16,0,0,1,4.57,5.93A3.89,3.89,0,0,1,300.07,289.9Z"/><path class="cls-4" d="M317.68,338l-18-12.88a3.85,3.85,0,0,0-5.39,1.06h0a4,4,0,0,0,.83,5.52l18.07,12.91a3.81,3.81,0,0,0,5.37-1.08h0A4,4,0,0,0,317.68,338Z"/><path class="cls-4" d="M326.42,331.93a3.79,3.79,0,0,1-5.34,1.06l-18-12.85a3.78,3.78,0,0,1-1.52-2.52,4,4,0,0,1,.68-2.95,3.86,3.86,0,0,1,1.34-1.21,15.7,15.7,0,0,1,7.11,2.38l11.75,8.4a16.22,16.22,0,0,1,4.62,6A4.15,4.15,0,0,1,326.42,331.93Z"/><path class="cls-4" d="M343,383l-18.16-13a3.82,3.82,0,0,0-5.4,1.13h0a4.12,4.12,0,0,0,.88,5.63l18.21,13a3.79,3.79,0,0,0,5.38-1.16h0A4.15,4.15,0,0,0,343,383Z"/><path class="cls-4" d="M351.68,376.77a3.76,3.76,0,0,1-5.34,1.14l-18.12-13a3.88,3.88,0,0,1-1.55-2.57,4.21,4.21,0,0,1,.67-3,3.93,3.93,0,0,1,1.32-1.25,15.37,15.37,0,0,1,7.15,2.37L347.65,369a16.33,16.33,0,0,1,4.68,6.09A4.16,4.16,0,0,1,351.68,376.77Z"/><path class="cls-6" d="M303.39,211.06l-8.1,11.12A7.41,7.41,0,0,1,285,223.89l-14.4-10.29a7.17,7.17,0,0,1-1.51-10.13l8.25-11A10.62,10.62,0,0,1,291,189.51c-.09-.33,9.83,7,10.13,7.16A10.23,10.23,0,0,1,303.39,211.06Z"/><path class="cls-7" d="M303.39,211.06l-8.1,11.12A7.41,7.41,0,0,1,285,223.89l-14.4-10.29a7.22,7.22,0,0,1-.94-.8l13-17.41a16.34,16.34,0,0,1,8.34-5.88c-.28-.36,10,7.07,10.13,7.16A10.23,10.23,0,0,1,303.39,211.06Z"/><path class="cls-7" d="M292.63,224.44a7.39,7.39,0,0,1-7.6-.55l-14.4-10.29a7.05,7.05,0,0,1-2.86-6.94C277.26,209.24,287.41,216.65,292.63,224.44Z"/><path class="cls-8" d="M292.63,224.44a7.39,7.39,0,0,1-7.6-.55l-14.4-10.29a7.22,7.22,0,0,1-.94-.8l3.21-4.31C280.28,211.58,288.52,218.18,292.63,224.44Z"/><path class="cls-9" d="M218.41,232.6a8,8,0,0,1-5.08,3.08l-5.17.87c-.54-4.07-4.15-31.69-4.74-36.19,6.66-1.72,13.06,1.78,14,8.37l2.47,18.36A7.47,7.47,0,0,1,218.41,232.6Z"/><path class="cls-6" d="M218.41,232.6a8,8,0,0,1-5.08,3.08l-5.17.87-.83-6.35a45.09,45.09,0,0,1,12.17.4A8,8,0,0,1,218.41,232.6Z"/><path class="cls-10" d="M321.37,120.35l-57.73,57.73a10.8,10.8,0,0,1-15.28,0l-47.91-47.9-9.82-9.83a39.28,39.28,0,1,1,55.55-55.54L256,74.63l9.82-9.82a39.28,39.28,0,1,1,55.55,55.54Z"/><path class="cls-11" d="M321.37,120.35,274.6,167.12a10.8,10.8,0,0,1-15.28,0l-47.91-47.9-9.81-9.83a39.27,39.27,0,0,1-4.94-49.52,39.29,39.29,0,0,1,49.52,4.94L256,74.63l9.82-9.82a39.28,39.28,0,1,1,55.55,55.54Z"/><ellipse class="cls-12" cx="306.01" cy="71.78" rx="9.97" ry="16.47" transform="translate(66.09 274.84) rotate(-53.45)"/><ellipse class="cls-12" cx="321.69" cy="95.84" rx="6.3" ry="10.41" transform="translate(-10.59 48.28) rotate(-8.45)"/></svg>