<svg id="_50" data-name="50" xmlns="http://www.w3.org/2000/svg" viewBox="0 0 512 512"><defs><style>.cls-1{fill:#29a3fb;}.cls-2{fill:#1393e2;}.cls-3{fill:#f9c744;}.cls-4{fill:#fbdb58;}.cls-5{fill:#f9eaa5;}.cls-6{fill:#3e4e60;}.cls-7{fill:#fb626e;}.cls-8{fill:#fa4654;}.cls-9{fill:#334353;}.cls-10{fill:#3f6c8e;}</style></defs><title>50-heart-icons</title><circle class="cls-1" cx="256" cy="256" r="256"/><path class="cls-2" d="M503,323.54C473.36,432.15,374,512,256,512,114.62,512,0,397.38,0,256a257.16,257.16,0,0,1,3.52-42.54,65,65,0,0,0,32.19.83c16.91-4,31.71-14.46,48.54-18.76,27.84-7.1,59.55,5.15,75.38,29.13,9.54,14.44,15.55,34.06,32.1,39.15,9.83,3,20.71-.5,29-6.6s14.49-14.51,20.79-22.64c13.33-17.21,28.24-34.21,48-43.25s45.66-8.08,60.72,7.63c6.82,7.13,10.8,16.45,14.18,25.72,13.89,38.09,13.6,74.48,32.5,110.35,3.68,7,15.14,18.94,22.81,20.7,13.27,3,22.94-11.51,32.89-20.8C465.83,322.62,485.81,318.23,503,323.54Z"/><path class="cls-3" d="M428.14,284.11l-152,152a28.45,28.45,0,0,1-40.25,0L109.72,310,83.86,284.11A103.44,103.44,0,1,1,230.14,137.82L256,163.69l25.86-25.87A103.44,103.44,0,0,1,428.14,284.11Z"/><path class="cls-4" d="M428.14,284.11,305,407.26a28.45,28.45,0,0,1-40.25,0L138.58,281.11l-25.86-25.87a103.46,103.46,0,0,1-13-130.43,103.49,103.49,0,0,1,130.42,13L256,163.69l25.86-25.87A103.44,103.44,0,0,1,428.14,284.11Z"/><ellipse class="cls-5" cx="387.69" cy="156.2" rx="26.24" ry="43.38" transform="translate(31.32 374.59) rotate(-53.45)"/><ellipse class="cls-5" cx="428.99" cy="219.55" rx="16.58" ry="27.41" transform="translate(-27.59 65.38) rotate(-8.45)"/><path class="cls-6" d="M256,336.37c-20.71,0-39.83-6.66-52.48-18.26a9.52,9.52,0,0,1,12.87-14c9,8.3,23.85,13.25,39.61,13.25s30.57-4.95,39.61-13.25a9.52,9.52,0,1,1,12.87,14C295.83,329.71,276.71,336.37,256,336.37Z"/><ellipse class="cls-7" cx="342.88" cy="276" rx="44.53" ry="20.04"/><path class="cls-7" d="M213.65,276c0,11.07-19.94,20-44.53,20A93.37,93.37,0,0,1,152,294.5c-16.08-3-27.39-10.16-27.39-18.5a10.71,10.71,0,0,1,2.39-6.49h0c6-7.89,22.6-13.55,42.13-13.55C193.71,256,213.65,264.93,213.65,276Z"/><path class="cls-8" d="M152,294.5c-16.08-3-27.39-10.16-27.39-18.5a10.71,10.71,0,0,1,2.39-6.49h0Z"/><path class="cls-9" d="M223.67,212.36v22.82A17.79,17.79,0,0,1,205.9,253a17.78,17.78,0,0,1-17.78-17.77V212.36a17.78,17.78,0,0,1,35.55,0Z"/><path class="cls-6" d="M223.67,212.36v22.82a17.6,17.6,0,0,1-.84,5.41,17.76,17.76,0,0,1-23.19-16.92V200.86a17.62,17.62,0,0,1,.84-5.42,17.79,17.79,0,0,1,23.19,16.92Z"/><ellipse class="cls-10" cx="212.98" cy="213.48" rx="7.08" ry="12.46"/><path class="cls-9" d="M323.88,212.36v22.82a17.6,17.6,0,0,1-.84,5.41,17.78,17.78,0,0,1-34.71-5.41V212.36a17.78,17.78,0,0,1,35.55,0Z"/><path class="cls-6" d="M323.88,212.36v22.82a17.6,17.6,0,0,1-.84,5.41,17.77,17.77,0,0,1-23.2-16.92V200.86a17.62,17.62,0,0,1,.84-5.42,17.8,17.8,0,0,1,23.2,16.92Z"/><ellipse class="cls-10" cx="313.18" cy="213.48" rx="7.08" ry="12.46"/></svg>